<?xml version="1.0" encoding="utf-8"?>
<!-- Generator: Adobe Illustrator 26.0.2, SVG Export Plug-In . SVG Version: 6.00 Build 0)  -->
<svg version="1.1" id="Layer_1" xmlns="http://www.w3.org/2000/svg" xmlns:xlink="http://www.w3.org/1999/xlink" x="0px" y="0px"
	 viewBox="0 0 250 83.056" style="enable-background:new 0 0 250 83.056;" xml:space="preserve">
<style type="text/css">
	.st0{fill:url(#SVGID_1_);}
	.st1{fill:url(#SVGID_00000183215897755895941840000012665442484205447604_);}
	.st2{fill:url(#SVGID_00000031180311474456663980000003280602421195487900_);}
	.st3{fill:url(#SVGID_00000120541390678920192390000012916590294333955714_);}
	.st4{fill:url(#SVGID_00000101792749948446933690000014443338587919784104_);}
	.st5{fill:url(#SVGID_00000168818113163366911270000012176769582362690989_);}
</style>
<g>
	<g>
		<g>
			
				<linearGradient id="SVGID_1_" gradientUnits="userSpaceOnUse" x1="233.7527" y1="-595.0187" x2="179.7284" y2="-540.9944" gradientTransform="matrix(1 0 0 1 0 610.2306)">
				<stop  offset="0" style="stop-color:#F9ED32"/>
				<stop  offset="0.1538" style="stop-color:#F7941D"/>
				<stop  offset="0.2857" style="stop-color:#ED1C24"/>
				<stop  offset="0.3901" style="stop-color:#BE1E2D"/>
				<stop  offset="0.4725" style="stop-color:#92278F"/>
				<stop  offset="0.5989" style="stop-color:#262262"/>
				<stop  offset="0.6868" style="stop-color:#1B75BC"/>
				<stop  offset="0.7802" style="stop-color:#2BB673"/>
				<stop  offset="0.8681" style="stop-color:#8DC63F"/>
				<stop  offset="1" style="stop-color:#D7DF23"/>
			</linearGradient>
			<path class="st0" d="M179.274,73.935c-15.969-13.629-17.871-37.622-4.243-53.592l0,0c13.632-15.97,37.622-17.868,53.597-4.243
				l0,0c15.966,13.628,17.868,37.622,4.234,53.594l0,0C219.239,85.662,195.246,87.561,179.274,73.935L179.274,73.935z
				 M166.121,48.014c0.766,9.679,5.225,19.067,13.195,25.868l0,0c7.975,6.803,17.946,9.73,27.626,8.965l0,0
				c9.682-0.766,19.073-5.228,25.874-13.199l0,0c6.803-7.969,9.73-17.943,8.966-27.623l0,0c-0.769-9.682-5.229-19.069-13.198-25.871
				l0,0c-7.972-6.803-17.946-9.728-27.629-8.962l0,0c-9.682,0.765-19.067,5.225-25.871,13.196l0,0
				C168.281,28.356,165.355,38.331,166.121,48.014L166.121,48.014z"/>
			
				<linearGradient id="SVGID_00000171677978432270890030000016697942841261309107_" gradientUnits="userSpaceOnUse" x1="232.0991" y1="-596.6696" x2="178.0742" y2="-542.6448" gradientTransform="matrix(1 0 0 1 0 610.2306)">
				<stop  offset="0" style="stop-color:#F9ED32"/>
				<stop  offset="0.1538" style="stop-color:#F7941D"/>
				<stop  offset="0.2857" style="stop-color:#ED1C24"/>
				<stop  offset="0.3901" style="stop-color:#BE1E2D"/>
				<stop  offset="0.4725" style="stop-color:#92278F"/>
				<stop  offset="0.5989" style="stop-color:#262262"/>
				<stop  offset="0.6868" style="stop-color:#1B75BC"/>
				<stop  offset="0.7802" style="stop-color:#2BB673"/>
				<stop  offset="0.8681" style="stop-color:#8DC63F"/>
				<stop  offset="1" style="stop-color:#D7DF23"/>
			</linearGradient>
			<path style="fill:url(#SVGID_00000171677978432270890030000016697942841261309107_);" d="M182.969,66.93
				c-15.969-13.626-17.865-37.62-4.237-53.591l0,0c13.626-15.969,37.619-17.87,53.594-4.242l0,0
				c15.966,13.626,17.871,37.622,4.234,53.592l0,0C222.937,78.659,198.947,80.559,182.969,66.93L182.969,66.93z M169.818,41.009
				c0.766,9.68,5.228,19.066,13.198,25.871l0,0c7.972,6.801,17.946,9.728,27.623,8.962l0,0c9.682-0.766,19.076-5.228,25.88-13.195
				l0,0c6.796-7.972,9.724-17.946,8.951-27.628l0,0c-0.76-9.68-5.222-19.069-13.189-25.87l0,0
				c-7.972-6.803-17.943-9.73-27.629-8.963l0,0c-9.682,0.766-19.069,5.225-25.871,13.198l0,0
				C171.979,21.353,169.053,31.327,169.818,41.009L169.818,41.009z"/>
			
				<linearGradient id="SVGID_00000096020326158914107520000000005505316696235140_" gradientUnits="userSpaceOnUse" x1="237.7809" y1="-590.9822" x2="183.7612" y2="-536.9625" gradientTransform="matrix(1 0 0 1 0 610.2306)">
				<stop  offset="0" style="stop-color:#F9ED32"/>
				<stop  offset="0.1538" style="stop-color:#F7941D"/>
				<stop  offset="0.2857" style="stop-color:#ED1C24"/>
				<stop  offset="0.3901" style="stop-color:#BE1E2D"/>
				<stop  offset="0.4725" style="stop-color:#92278F"/>
				<stop  offset="0.5989" style="stop-color:#262262"/>
				<stop  offset="0.6868" style="stop-color:#1B75BC"/>
				<stop  offset="0.7802" style="stop-color:#2BB673"/>
				<stop  offset="0.8681" style="stop-color:#8DC63F"/>
				<stop  offset="1" style="stop-color:#D7DF23"/>
			</linearGradient>
			<path style="fill:url(#SVGID_00000096020326158914107520000000005505316696235140_);" d="M187.31,73.959
				c-15.972-13.628-17.871-37.622-4.243-53.589l0,0c13.629-15.972,37.625-17.87,53.591-4.24l0,0
				c15.972,13.625,17.874,37.619,4.247,53.589l0,0C227.275,85.686,203.282,87.587,187.31,73.959L187.31,73.959z M174.156,48.037
				c0.763,9.682,5.225,19.067,13.201,25.874l0,0c7.966,6.8,17.94,9.727,27.623,8.96l0,0c9.682-0.766,19.069-5.225,25.871-13.196l0,0
				c6.797-7.972,9.733-17.943,8.966-27.625l0,0c-0.772-9.682-5.228-19.07-13.201-25.871l0,0c-7.972-6.803-17.943-9.731-27.626-8.965
				l0,0c-9.679,0.768-19.07,5.226-25.871,13.196l0,0C176.317,28.382,173.39,38.357,174.156,48.037L174.156,48.037z"/>
			
				<linearGradient id="SVGID_00000053535910064225363010000017809988454088661425_" gradientUnits="userSpaceOnUse" x1="233.7527" y1="-595.0187" x2="179.7284" y2="-540.9944" gradientTransform="matrix(1 0 0 1 0 610.2306)">
				<stop  offset="0" style="stop-color:#F9ED32"/>
				<stop  offset="0.1538" style="stop-color:#F7941D"/>
				<stop  offset="0.2857" style="stop-color:#ED1C24"/>
				<stop  offset="0.3901" style="stop-color:#BE1E2D"/>
				<stop  offset="0.4725" style="stop-color:#92278F"/>
				<stop  offset="0.5989" style="stop-color:#262262"/>
				<stop  offset="0.6868" style="stop-color:#1B75BC"/>
				<stop  offset="0.7802" style="stop-color:#2BB673"/>
				<stop  offset="0.8681" style="stop-color:#8DC63F"/>
				<stop  offset="1" style="stop-color:#D7DF23"/>
			</linearGradient>
			<path style="fill:url(#SVGID_00000053535910064225363010000017809988454088661425_);" d="M179.274,73.935
				c-15.969-13.629-17.871-37.622-4.243-53.592l0,0c13.632-15.97,37.622-17.868,53.597-4.243l0,0
				c15.966,13.628,17.868,37.622,4.234,53.594l0,0C219.239,85.662,195.246,87.561,179.274,73.935L179.274,73.935z M166.876,47.953
				c0.748,9.488,5.121,18.692,12.93,25.356l0,0c7.815,6.667,17.586,9.537,27.079,8.786l0,0c9.483-0.751,18.69-5.124,25.354-12.933
				l0,0c6.67-7.812,9.533-17.589,8.785-27.078l0,0c-0.748-9.489-5.121-18.69-12.939-25.356l0,0
				c-7.803-6.666-17.583-9.536-27.069-8.785l0,0c-9.491,0.751-18.692,5.123-25.357,12.936l0,0
				C168.991,28.69,166.124,38.465,166.876,47.953L166.876,47.953z"/>
			
				<linearGradient id="SVGID_00000024717691834204871980000005875672591836449161_" gradientUnits="userSpaceOnUse" x1="232.0991" y1="-596.6696" x2="178.0742" y2="-542.6448" gradientTransform="matrix(1 0 0 1 0 610.2306)">
				<stop  offset="0" style="stop-color:#F9ED32"/>
				<stop  offset="0.1538" style="stop-color:#F7941D"/>
				<stop  offset="0.2857" style="stop-color:#ED1C24"/>
				<stop  offset="0.3901" style="stop-color:#BE1E2D"/>
				<stop  offset="0.4725" style="stop-color:#92278F"/>
				<stop  offset="0.5989" style="stop-color:#262262"/>
				<stop  offset="0.6868" style="stop-color:#1B75BC"/>
				<stop  offset="0.7802" style="stop-color:#2BB673"/>
				<stop  offset="0.8681" style="stop-color:#8DC63F"/>
				<stop  offset="1" style="stop-color:#D7DF23"/>
			</linearGradient>
			<path style="fill:url(#SVGID_00000024717691834204871980000005875672591836449161_);" d="M182.969,66.93
				c-15.969-13.626-17.865-37.62-4.237-53.591l0,0c13.626-15.969,37.619-17.87,53.594-4.242l0,0
				c15.966,13.626,17.871,37.622,4.234,53.592l0,0C222.937,78.659,198.947,80.559,182.969,66.93L182.969,66.93z M170.569,40.947
				c0.751,9.489,5.121,18.692,12.939,25.359l0,0c7.812,6.666,17.583,9.533,27.076,8.785l0,0c9.483-0.753,18.69-5.121,25.357-12.936
				l0,0c6.666-7.811,9.527-17.586,8.778-27.075l0,0c-0.751-9.489-5.118-18.69-12.933-25.357l0,0
				c-7.812-6.667-17.589-9.534-27.075-8.786l0,0c-9.489,0.751-18.695,5.121-25.357,12.933l0,0
				C172.689,21.686,169.821,31.458,170.569,40.947L170.569,40.947z"/>
			
				<linearGradient id="SVGID_00000013902033394207539100000007673771697883209113_" gradientUnits="userSpaceOnUse" x1="237.7809" y1="-590.9822" x2="183.7612" y2="-536.9625" gradientTransform="matrix(1 0 0 1 0 610.2306)">
				<stop  offset="0" style="stop-color:#F9ED32"/>
				<stop  offset="0.1538" style="stop-color:#F7941D"/>
				<stop  offset="0.2857" style="stop-color:#ED1C24"/>
				<stop  offset="0.3901" style="stop-color:#BE1E2D"/>
				<stop  offset="0.4725" style="stop-color:#92278F"/>
				<stop  offset="0.5989" style="stop-color:#262262"/>
				<stop  offset="0.6868" style="stop-color:#1B75BC"/>
				<stop  offset="0.7802" style="stop-color:#2BB673"/>
				<stop  offset="0.8681" style="stop-color:#8DC63F"/>
				<stop  offset="1" style="stop-color:#D7DF23"/>
			</linearGradient>
			<path style="fill:url(#SVGID_00000013902033394207539100000007673771697883209113_);" d="M187.31,73.959
				c-15.972-13.628-17.871-37.622-4.243-53.589l0,0c13.629-15.972,37.625-17.87,53.591-4.24l0,0
				c15.972,13.625,17.874,37.619,4.247,53.589l0,0C227.275,85.686,203.282,87.587,187.31,73.959L187.31,73.959z M174.907,47.978
				c0.751,9.488,5.118,18.69,12.933,25.354l0,0c7.812,6.669,17.586,9.539,27.081,8.785l0,0c9.488-0.75,18.685-5.121,25.354-12.933
				l0,0c6.669-7.812,9.536-17.586,8.785-27.075l0,0c-0.751-9.486-5.121-18.692-12.93-25.359l0,0
				c-7.812-6.664-17.595-9.531-27.078-8.782l0,0c-9.491,0.748-18.69,5.12-25.357,12.933l0,0
				C177.026,28.714,174.159,38.49,174.907,47.978L174.907,47.978z"/>
		</g>
	</g>
	<path d="M26.468,24.836c0-0.287,0.233-0.523,0.523-0.523h1.204c0.287,0,0.524,0.236,0.524,0.523V47.21
		c0,0.286-0.236,0.523-0.524,0.523h-1.204c-0.29,0-0.523-0.236-0.523-0.523V24.836z"/>
	<path d="M40.564,48.19c-1.716,0-3.428-0.322-5.142-0.96c-1.715-0.643-3.199-1.47-4.454-2.482l1.019-1.373
		c0.173-0.228,0.508-0.289,0.75-0.129c0,0,2.195,1.449,3.605,1.984c1.405,0.535,2.863,0.804,4.362,0.804
		c1.593,0,2.932-0.4,4.018-1.192c1.085-0.795,1.63-1.878,1.63-3.252l0,0c0-0.053-0.033-0.328-0.071-0.61
		c0,0-0.101-0.735-0.436-1.225c-0.338-0.487-0.798-0.915-1.378-1.283c-0.583-0.367-1.24-0.672-1.974-0.915
		c-0.736-0.243-1.513-0.49-2.343-0.735c-0.948-0.273-1.905-0.565-2.869-0.87c-0.965-0.308-1.829-0.693-2.597-1.169
		c-0.763-0.473-1.384-1.061-1.859-1.764c-0.475-0.702-0.712-1.572-0.712-2.609l0,0c0-0.053,0.024-0.328,0.056-0.613
		c0,0,0.137-1.289,0.52-2.069c0.382-0.78,0.909-1.458,1.584-2.038c0.673-0.58,1.483-1.032,2.434-1.352
		c0.947-0.319,1.988-0.481,3.121-0.481c1.406,0,2.855,0.236,4.341,0.703c1.483,0.472,2.805,1.106,3.972,1.913l-0.915,1.441
		c-0.153,0.245-0.484,0.325-0.733,0.182c0,0-1.772-1.008-3.011-1.437c-1.241-0.43-2.488-0.645-3.743-0.645
		c-1.623,0-2.917,0.389-3.88,1.169c-0.966,0.78-1.447,1.748-1.447,2.908l0,0c0,0.051,0.036,0.323,0.08,0.609
		c0,0,0.105,0.684,0.47,1.154c0.368,0.476,0.849,0.881,1.447,1.217c0.595,0.337,1.291,0.633,2.09,0.893
		c0.793,0.258,1.606,0.512,2.433,0.756c0.95,0.273,1.883,0.573,2.801,0.893c0.92,0.322,1.745,0.733,2.479,1.238
		c0.738,0.503,1.325,1.106,1.77,1.809c0.443,0.705,0.664,1.572,0.664,2.613l0,0c0,0.05-0.026,0.328-0.056,0.612
		c0,0-0.15,1.459-0.565,2.298c-0.413,0.84-0.986,1.558-1.722,2.153c-0.733,0.597-1.591,1.052-2.571,1.375
		C42.752,48.028,41.697,48.19,40.564,48.19z"/>
	<path d="M61.502,48.28c-1.683,0-3.253-0.329-4.706-0.986c-1.455-0.658-2.715-1.539-3.784-2.64
		c-1.067-1.101-1.901-2.388-2.502-3.856c-0.6-1.471-0.9-3.031-0.9-4.685l0,0c0-0.05,0.021-0.326,0.047-0.612
		c0,0,0.254-2.694,0.854-4.164c0.6-1.471,1.435-2.769,2.502-3.901c1.068-1.135,2.329-2.032,3.784-2.69
		c1.453-0.658,3.023-0.986,4.706-0.986c1.1,0,2.105,0.117,3.008,0.353c0.9,0.233,1.736,0.554,2.503,0.96
		c0.765,0.406,1.461,0.872,2.089,1.391c0.627,0.523,1.216,1.073,1.769,1.656l-1.241,1.279c-0.201,0.204-0.541,0.215-0.751,0.021
		c0,0-1.742-1.59-2.966-2.356c-1.225-0.765-2.711-1.147-4.454-1.147c-1.348,0-2.595,0.257-3.742,0.775
		c-1.15,0.517-2.146,1.226-2.986,2.125c-0.843,0.899-1.506,1.959-1.997,3.177c-0.49,1.222-0.735,2.53-0.735,3.929l0,0
		c0,0.053,0.021,0.328,0.05,0.615c0,0,0.203,2.198,0.709,3.432c0.505,1.234,1.195,2.31,2.066,3.222
		c0.872,0.915,1.889,1.63,3.053,2.149c1.16,0.517,2.416,0.778,3.766,0.778c1.651,0,3.13-0.374,4.43-1.125
		c1.301-0.75,2.44-1.674,3.42-2.778l1.169,1.034c0.215,0.188,0.222,0.509,0.017,0.711c0,0-2.173,2.099-3.689,2.984
		C65.474,47.837,63.645,48.28,61.502,48.28z"/>
	<path d="M83.22,48.28c-1.743,0-3.343-0.329-4.796-0.986c-1.453-0.658-2.715-1.539-3.79-2.64c-1.071-1.101-1.905-2.388-2.499-3.856
		c-0.598-1.471-0.897-3.031-0.897-4.685l0,0c0-0.05,0.023-0.326,0.05-0.612c0,0,0.251-2.694,0.847-4.164
		c0.594-1.471,1.44-2.769,2.523-3.901c1.086-1.135,2.365-2.032,3.836-2.69c1.47-0.658,3.074-0.986,4.821-0.986
		c1.745,0,3.343,0.329,4.799,0.986c1.453,0.658,2.715,1.539,3.787,2.64c1.071,1.103,1.905,2.389,2.503,3.857
		c0.595,1.471,0.896,3.031,0.896,4.684l0,0c0,0.053-0.021,0.328-0.047,0.615c0,0-0.252,2.691-0.848,4.164
		c-0.598,1.467-1.438,2.769-2.526,3.902c-1.086,1.133-2.365,2.029-3.833,2.685C86.572,47.953,84.968,48.28,83.22,48.28z
		 M83.313,46.124c1.384,0,2.667-0.266,3.854-0.801c1.183-0.533,2.197-1.247,3.044-2.146c0.844-0.9,1.504-1.959,1.982-3.177
		c0.476-1.222,0.714-2.515,0.714-3.887l0,0c0-0.05-0.02-0.326-0.045-0.612c0,0-0.2-2.198-0.691-3.435
		c-0.493-1.231-1.178-2.307-2.053-3.22c-0.879-0.914-1.907-1.632-3.092-2.149c-1.184-0.518-2.451-0.775-3.806-0.775
		c-1.382,0-2.667,0.266-3.851,0.799c-1.186,0.532-2.201,1.249-3.046,2.147c-0.846,0.899-1.507,1.958-1.985,3.177
		c-0.475,1.22-0.715,2.515-0.715,3.884l0,0c0,0.053,0.023,0.328,0.048,0.615c0,0,0.2,2.198,0.691,3.432
		c0.491,1.234,1.175,2.31,2.053,3.222c0.876,0.915,1.908,1.63,3.091,2.149C80.691,45.862,81.959,46.124,83.313,46.124z"/>
	<path d="M94,24.791c-0.117-0.263,0.023-0.478,0.31-0.478h1.572c0.289,0,0.616,0.216,0.727,0.481l8.452,19.93
		c0.114,0.264,0.299,0.264,0.412,0l8.541-19.93c0.113-0.266,0.442-0.481,0.729-0.481h1.479c0.287,0,0.428,0.216,0.308,0.478
		L106.44,47.437c-0.114,0.263-0.445,0.479-0.732,0.479h-0.884c-0.289,0-0.621-0.218-0.736-0.479L94,24.791z"/>
	<path d="M126.741,48.28c-1.534,0-2.999-0.29-4.397-0.872c-1.394-0.582-2.622-1.406-3.683-2.476
		c-1.056-1.074-1.893-2.359-2.506-3.859c-0.613-1.5-0.918-3.169-0.918-5.005l0,0c0-0.051,0.02-0.326,0.044-0.61
		c0,0,0.237-2.748,0.802-4.233c0.568-1.486,1.349-2.777,2.344-3.881c0.995-1.1,2.165-1.974,3.513-2.616
		c1.346-0.645,2.816-0.965,4.409-0.965c1.654,0,3.136,0.313,4.451,0.941c1.318,0.627,2.445,1.494,3.375,2.594
		c0.936,1.101,1.656,2.395,2.161,3.88c0.508,1.483,0.757,3.1,0.757,4.846c0,0.213,0,0.374,0,0.481c0,0.11-0.018,0.251-0.047,0.436
		h-18.899c-0.289,0-0.488,0.234-0.448,0.52c0,0,0.34,2.237,0.89,3.364c0.553,1.127,1.244,2.089,2.072,2.878
		c0.828,0.793,1.773,1.396,2.833,1.806c1.059,0.41,2.17,0.616,3.337,0.616c1.842,0,3.399-0.352,4.673-1.056
		c1.274-0.702,2.401-1.576,3.384-2.615l1.168,1.028c0.218,0.192,0.222,0.506,0.009,0.702c0,0-2.162,1.994-3.686,2.837
		C130.859,47.861,128.982,48.28,126.741,48.28z M134.184,34.919c0.287,0,0.487-0.234,0.449-0.517c0,0-0.258-1.815-0.643-2.905
		c-0.385-1.085-0.921-2.05-1.611-2.891c-0.69-0.843-1.543-1.516-2.553-2.02c-1.016-0.508-2.195-0.759-3.548-0.759
		c-1.165,0-2.255,0.23-3.268,0.69c-1.013,0.457-1.895,1.095-2.648,1.905c-0.751,0.811-1.373,1.775-1.863,2.893
		c-0.491,1.118-0.783,2.317-0.873,3.603H134.184z"/>
	<path d="M139.068,38.343c0-4.64,0.499-7.165,2.912-9.933c2.412-2.766,5.16-3.731,6.848-4.135c0.983-0.233,1.928-0.331,2.87-0.331
		v1.642c0,0.335-0.12,0.506-0.49,0.551c-0.129,0.017-0.273,0.029-0.394,0.048c-0.264,0.039-1.712,0.176-3.085,0.682
		c-1.373,0.506-3.049,1.666-4.162,3.135c-2.31,2.667-2.248,6.232-2.248,8.129v9.078c0,0.286-0.237,0.523-0.523,0.523h-1.207
		c-0.287,0-0.523-0.236-0.523-0.523C139.068,47.209,139.068,42.985,139.068,38.343z"/>
	<path d="M61.138,67.149c-0.458,0-0.888-0.059-1.285-0.182c-0.398-0.122-0.744-0.316-1.043-0.585
		c-0.299-0.267-0.53-0.601-0.699-1.008c-0.167-0.406-0.251-0.884-0.251-1.434v-7.374c0-0.155-0.126-0.283-0.284-0.283H56.45
		c-0.159,0-0.284-0.128-0.284-0.283v-0.467c0-0.156,0.125-0.282,0.284-0.282h1.127c0.158,0,0.284-0.129,0.284-0.283v-2.802
		c0-0.156,0.128-0.282,0.283-0.282h0.557c0.156,0,0.284,0.125,0.284,0.282v2.802c0,0.155,0.128,0.283,0.284,0.283h3.537
		c0.153,0,0.284,0.128,0.284,0.282v0.467c0,0.155-0.129,0.283-0.284,0.283h-3.537c-0.155,0-0.284,0.129-0.284,0.283v6.959
		c0,0.156,0.02,0.409,0.044,0.565c0,0,0.173,1.147,0.609,1.479c0.437,0.338,0.999,0.505,1.684,0.505c0.293,0,0.566-0.03,0.826-0.089
		c0.258-0.056,0.557-0.158,0.894-0.302v0.772c0,0.156-0.119,0.332-0.263,0.388c0,0-0.344,0.137-0.643,0.206
		C61.837,67.116,61.504,67.149,61.138,67.149z"/>
	<path d="M64.118,51.888c0-0.156,0.129-0.284,0.283-0.284h0.557c0.155,0,0.283,0.129,0.283,0.284v5.259
		c0,0.156,0.077,0.18,0.168,0.054c0,0,0.762-1.04,1.437-1.513c0.673-0.472,1.546-0.712,2.615-0.712c0.735,0,1.39,0.119,1.971,0.356
		c0.582,0.234,1.076,0.57,1.48,0.998c0.404,0.425,0.711,0.936,0.917,1.524c0.207,0.589,0.311,1.235,0.311,1.937v6.869
		c0,0.156-0.128,0.285-0.284,0.285h-0.557c-0.155,0-0.284-0.129-0.284-0.285V60.28c0-0.156-0.017-0.41-0.041-0.562
		c0,0-0.279-1.896-0.921-2.622c-0.642-0.724-1.56-1.089-2.751-1.089c-0.58,0-1.116,0.102-1.603,0.308
		c-0.493,0.209-0.917,0.493-1.285,0.863c-0.367,0.367-0.652,0.807-0.861,1.318c-0.206,0.514-0.31,1.076-0.31,1.684v6.479
		c0,0.156-0.128,0.285-0.283,0.285h-0.557c-0.155,0-0.283-0.129-0.283-0.285V51.888H64.118z"/>
	<path d="M80.82,67.223c-0.763,0-1.494-0.149-2.192-0.437c-0.697-0.29-1.312-0.705-1.841-1.238
		c-0.529-0.533-0.945-1.177-1.252-1.925c-0.308-0.748-0.46-1.581-0.46-2.497l0,0c0-0.026,0.009-0.176,0.024-0.329
		c0,0,0.117-1.349,0.401-2.09c0.283-0.742,0.67-1.39,1.168-1.94c0.497-0.548,1.082-0.983,1.755-1.306
		c0.67-0.323,1.405-0.482,2.2-0.482c0.826,0,1.566,0.156,2.225,0.47c0.657,0.316,1.217,0.747,1.684,1.298
		c0.466,0.548,0.826,1.195,1.079,1.937c0.251,0.739,0.377,1.546,0.377,2.418c0,0.105,0,0.185,0,0.24
		c0,0.051-0.011,0.126-0.023,0.218h-9.416c-0.156,0-0.266,0.128-0.242,0.279c0,0,0.164,1.095,0.442,1.66
		c0.275,0.563,0.621,1.041,1.032,1.435c0.413,0.397,0.888,0.699,1.415,0.902c0.529,0.206,1.085,0.308,1.666,0.308
		c0.918,0,1.697-0.176,2.332-0.529c0.637-0.349,1.201-0.786,1.689-1.303l0.568,0.499c0.117,0.102,0.12,0.275,0.003,0.379
		c0,0-1.065,0.98-1.821,1.4C82.879,67.011,81.941,67.223,80.82,67.223z M84.515,60.548c0.153,0,0.266-0.126,0.243-0.279
		c0,0-0.126-0.887-0.319-1.429c-0.189-0.542-0.458-1.025-0.802-1.444c-0.344-0.419-0.771-0.756-1.279-1.01
		c-0.505-0.251-1.095-0.379-1.769-0.379c-0.585,0-1.127,0.114-1.632,0.347c-0.506,0.225-0.947,0.545-1.322,0.948
		c-0.374,0.407-0.684,0.89-0.93,1.447c-0.245,0.557-0.392,1.159-0.439,1.799H84.515z"/>
	<path d="M90.649,55.518c-0.054-0.146,0.03-0.266,0.185-0.266h0.696c0.155,0,0.325,0.12,0.374,0.269l3.346,9.734
		c0.05,0.149,0.132,0.149,0.185,0l3.348-9.778c0.05-0.15,0.218-0.27,0.374-0.27h0.328c0.156,0,0.325,0.12,0.376,0.27l3.348,9.778
		c0.048,0.149,0.132,0.149,0.183,0l3.346-9.734c0.051-0.149,0.219-0.269,0.376-0.269h0.648c0.156,0,0.24,0.12,0.188,0.266
		l-4.093,11.252c-0.053,0.147-0.225,0.267-0.382,0.267h-0.395c-0.156,0-0.326-0.12-0.377-0.267l-3.298-9.485
		c-0.051-0.149-0.137-0.149-0.186,0l-3.321,9.485c-0.053,0.147-0.221,0.267-0.379,0.267h-0.394c-0.158,0-0.329-0.12-0.382-0.267
		L90.649,55.518z"/>
	<path d="M113.48,67.223c-0.872,0-1.669-0.165-2.398-0.493c-0.724-0.329-1.355-0.769-1.889-1.321
		c-0.536-0.548-0.953-1.192-1.25-1.925c-0.296-0.735-0.448-1.513-0.448-2.34l0,0c0-0.024,0.012-0.173,0.027-0.329
		c0,0,0.125-1.321,0.421-2.054c0.298-0.733,0.717-1.382,1.259-1.952c0.542-0.563,1.18-1.01,1.916-1.34
		c0.732-0.329,1.534-0.493,2.407-0.493c0.87,0,1.668,0.164,2.397,0.493c0.726,0.331,1.355,0.769,1.89,1.319
		c0.536,0.551,0.953,1.192,1.25,1.925s0.449,1.515,0.449,2.34l0,0c0,0.026-0.014,0.173-0.027,0.329c0,0-0.123,1.321-0.421,2.056
		c-0.298,0.733-0.718,1.384-1.261,1.947c-0.542,0.566-1.181,1.016-1.913,1.343C115.153,67.056,114.35,67.223,113.48,67.223z
		 M113.526,66.142c0.69,0,1.333-0.132,1.923-0.4c0.591-0.264,1.097-0.624,1.522-1.071c0.422-0.449,0.751-0.978,0.987-1.585
		c0.239-0.612,0.358-1.258,0.358-1.943l0,0c0-0.024-0.012-0.173-0.024-0.329c0,0-0.098-1.076-0.346-1.69
		c-0.245-0.616-0.589-1.154-1.028-1.608c-0.434-0.458-0.95-0.816-1.539-1.074c-0.594-0.258-1.226-0.388-1.902-0.388
		c-0.693,0-1.334,0.132-1.923,0.4c-0.594,0.267-1.097,0.625-1.522,1.074c-0.421,0.448-0.751,0.975-0.99,1.587
		c-0.237,0.606-0.358,1.253-0.358,1.938l0,0c0,0.026,0.015,0.173,0.029,0.329c0,0,0.096,1.076,0.343,1.69
		c0.245,0.616,0.586,1.156,1.025,1.609c0.437,0.455,0.953,0.814,1.543,1.073C112.215,66.013,112.851,66.142,113.526,66.142z"/>
	<path d="M127.718,51.888c0-0.156,0.128-0.284,0.283-0.284h0.554c0.156,0,0.283,0.129,0.283,0.284v14.773
		c0,0.156-0.126,0.285-0.283,0.285h-0.553c-0.156,0-0.283-0.129-0.283-0.285V51.888H127.718z"/>
	<path d="M23.234,35.99c0,6.754-5.201,12.233-11.617,12.233C5.199,48.223,0,42.744,0,35.99c0-6.756,5.199-12.232,11.617-12.232
		c3.85,0,7.261,1.971,9.377,5.01l0,0V18.526c0-0.289,0.234-0.523,0.523-0.523h1.204c0.287,0,0.523,0.233,0.512,0.523V35.99H23.234z
		 M11.617,46.094c5.193,0,9.407-4.524,9.407-10.105s-4.213-10.104-9.407-10.104s-9.404,4.523-9.404,10.104
		C2.213,41.569,6.424,46.094,11.617,46.094z"/>
	<path d="M120.307,62.256c0-2.323,0.249-3.587,1.459-4.971c1.208-1.388,2.58-1.872,3.428-2.071c0.488-0.12,0.965-0.167,1.435-0.167
		v0.822c0,0.168-0.06,0.252-0.243,0.276c-0.065,0.009-0.138,0.015-0.198,0.024c-0.131,0.02-0.854,0.092-1.543,0.343
		c-0.688,0.254-1.527,0.835-2.084,1.572c-1.157,1.333-1.127,3.12-1.127,4.069v4.544c0,0.144-0.117,0.263-0.261,0.263h-0.601
		c-0.146,0-0.263-0.119-0.263-0.263C120.307,66.697,120.307,64.584,120.307,62.256z"/>
	<path d="M141.319,61.086c0,3.39-2.612,6.141-5.835,6.141s-5.832-2.751-5.832-6.141c0-3.393,2.609-6.143,5.832-6.143
		c1.934,0,3.648,0.992,4.708,2.515l0,0v-5.594c0-0.144,0.117-0.261,0.261-0.261h0.604c0.147,0,0.264,0.117,0.261,0.261
		L141.319,61.086L141.319,61.086z M135.484,66.159c2.609,0,4.723-2.272,4.723-5.073c0-2.802-2.113-5.074-4.723-5.074
		c-2.609,0-4.723,2.272-4.723,5.074C130.761,63.887,132.875,66.159,135.484,66.159z"/>
</g>
</svg>
